<?xml version="1.0" encoding="UTF-8"?>
<svg version="1.1" viewBox="0 0 2048 1365" width="612" height="408" xmlns="http://www.w3.org/2000/svg">
<path transform="translate(920,223)" d="m0 0 4 1 9 17 14 24 13 22 3 6 5-1h13l11 4 8 6 7 9 15 26 7 13v2h2l3-10 7-10 9-9 12-6 7-2h20l10 3 9 5 10 9 7 11 4 12 1 7v8l-3 12-6 12-3 4 37 1-1 5-11 29-42 105-21 53-14 35-2 3-106 1 9 10 8 14 179 1 1 2-7 13-9 11-9 8-10 6-18 6-12 2-115 1-8 14-11 12-13 8-15 5-16 2-14-2-14-5-12-8-9-9-8-13-2-4h-22l-8 14-11 12-13 8-14 5-6 1h-20l-14-4-13-7-12-11-7-10-4-7v-2h-27l-16-4-12-5-11-7-10-10-7-10-5-9v-3l88-1 6-12 10-12-13-1-5-10-15-38-36-90-13-33-12-30-10-26v-3h17l2-5 10-16 7-9 5-1 14 8 10 8 10 9 7 6-5-25-6-12-4-5-10-6-3-3 13-13 8-7 5-2 17 9 13 11 9 8 4 4-1-12-4-15-5-10-4-5-9-6 1-3 19-12 3-2 6 1 14 8 11 8 12 10 6 7-1-13-5-17-6-10-7-6-2-1 1-3 20-8 19-5 6-1h16l10 3 8 6 4 8 1 4v11l-3 12-6 14-11 18-10 13-12 14-12 13-12 11-9 7-1 2h83v-117l4-5 3-1h34l5 2 2 5v116l39-1-10-19-13-23-4-9-1-4v-12l3-10 7-10-1-6-8-13-16-28-10-18-3-5 1-4 18-10zm-107 406 6 7 7 10 5 9h22l8-14 9-10v-2z" fill="#B8B01F"/>
<path transform="translate(1177,386)" d="m0 0 18 1 25 5 17 6 16 7 14 8 16 13 9 9 7 11 7 19 18 52 6 3 38 9 66 14 9 2 1 2 1 93 10 7-3 12-15 43-1 1-50 1-6 11-7 9-10 9-14 7-15 4h-20l-14-4-14-8-10-9-9-13-3-6-87-1-1-3v-291z" fill="#B8B01F"/>
<path transform="translate(1551,844)" d="m0 0h36l2 1 11 28 12 28h1v-55l1-2h33l1 1v119l-5 1h-32l-3-3-9-21-10-24-3-7-2-1 1 3v52l-2 1h-32l-1-1v-119z" fill="#B8B01F"/>
<path transform="translate(428,844)" d="m0 0h53l10 3 10 6 7 7 6 11 4 12 1 5v33l-4 15-5 10-9 10-7 5-9 3-7 1h-50l-1-1v-119zm36 31-2 1v57l1 1h7l7-2 5-6 3-12v-20l-3-10-4-6-2-2z" fill="#B8B01F"/>
<path transform="translate(1210,844)" d="m0 0h49l12 2 11 6 5 4 6 9 4 10 1 7v8l-2 10-5 10-5 6-5 2 4 10 8 15 9 19v3h-33l-6-9-10-20-6-9-3-1-1 38-1 1h-32l-1-1v-119zm34 31-1 1v19l1 1h13l5-2 4-5v-7l-3-5-2-1z" fill="#B8B01F"/>
<path transform="translate(1111,842)" d="m0 0h21l12 5 12 11 5 8 1 4-4 3-24 11-4-1-4-5-7-1-5 2-2 5-2 6-1 7v16l3 12 3 5 2 1h8l4-4-2-1h-7l-2-3v-29h50v25l-3 14-5 12-8 11-9 7-13 4h-19l-11-4-8-6-8-9-6-12-4-18v-26l3-15 5-12 6-9 9-8 11-5z" fill="#B8B01F"/>
<path transform="translate(1364,844)" d="m0 0h41l2 5 12 50 15 62-1 4h-33l-2-7-1-7-25 1-3 12-1 1h-26l-7-1 1-9 14-57 13-52zm20 47-2 6-4 21 1 1h11l-1-10-3-16z" fill="#B8B01F"/>
<path transform="translate(580,844)" d="m0 0h40l2 2 26 108 1 10-3 1h-29l-3-2-2-11h-24l-3 12-1 1-34-1 4-18 14-57 11-44zm19 47-2 9-3 16v3h12l-1-8-4-19z" fill="#B8B01F"/>
<path transform="translate(860,844)" d="m0 0h34l5 12 7 20v3l2-1 7-21 5-13h35l-3 9-23 54-3 8-1 11v37l-2 2h-28l-5-2-1-47-18-43-11-26z" fill="#B8B01F"/>
<path transform="translate(767,844)" d="m0 0h33l1 1v89l42-1 2 2v29l-78 1-1-1v-119z" fill="#B8B01F"/>
<path transform="translate(689,844)" d="m0 0h32l1 1v119l-2 1h-31l-2-2v-117z" fill="#B8B01F"/>
<path transform="translate(1472,844)" d="m0 0h33l1 1v119l-1 1h-33l-1-12z" fill="#B8B01F"/>
<path transform="translate(333,1025)" d="m0 0h21l10 2 6 4 5 9 1 4v12l-4 9-4 5 1 9 6 21-1 1h-16l-3-7-6-19-2-1v26l-1 1h-16l-1-2v-73zm14 13v23l7-1 4-5v-11l-2-4-5-2z" fill="#B8B01F"/>
<path transform="translate(1688,1025)" d="m0 0h24l9 2 6 4 5 8 1 4v14l-4 9-3 4h-2l8 27v4h-16l-3-5-7-21-2-1v27h-17l-1-74zm17 13-1 2v20l1 1 7-1 3-4 1-3v-7l-3-6-4-2z" fill="#B8B01F"/>
<path transform="translate(593,1026)" d="m0 0h18v31h9v-31h17v75h-16l-1-1v-30h-9v30l-1 1h-16l-1-1z" fill="#B8B01F"/>
<path transform="translate(1783,1025)" d="m0 0h24l8 2 7 6 5 10 2 12v17l-3 14-6 10-6 4-5 1h-27l-1-8v-66zm16 13-1 3v47l4 1 5-3 3-4 1-7v-25l-3-9-4-3z" fill="#B8B01F"/>
<path transform="translate(1189,1025)" d="m0 0h16l11 2 7 6 5 10 1 5v29l-2 9-6 9-5 4-7 2h-26l-1-1v-74zm11 13-1 2v48l4 1 6-4 2-4 1-6v-25l-3-8-4-4z" fill="#B8B01F"/>
<path transform="translate(1023,1025)" d="m0 0h23l9 2 8 7 4 8 2 12v18l-2 12-5 10-8 6-5 1h-27v-75zm16 13-1 2v47l4 2 6-3 3-6 1-10v-14l-2-12-4-5z" fill="#B8B01F"/>
<path transform="translate(849,1024)" d="m0 0h8l7 2 5 5 4 6 3 10 1 7v18l-2 12-6 12-5 4-5 2h-13l-7-4-6-9-3-10-1-7v-17l3-15 4-8 7-6zm2 16-3 5-1 6v26l3 9 4 1 3-3 2-9v-25l-3-9z" fill="#B8B01F"/>
<path transform="translate(945,1024)" d="m0 0h8l8 3 7 8 4 13 1 20-2 15-4 9-7 8-4 2h-14l-7-4-6-9-3-9-1-6v-22l3-12 4-8 7-6zm2 16-3 5-2 13v10l1 11 3 6 4 2 4-6 1-7v-23l-2-8-2-3z" fill="#B8B01F"/>
<path transform="translate(1510,1026)" d="m0 0h17l3 16 2 14h2l5-30h18l-2 13-12 60-1 2h-17l-2-3-8-39-5-28z" fill="#B8B01F"/>
<path transform="translate(1279,1025)" d="m0 0h13l20 1 1 2-1 10h-16l1 18 11 1v13h-12l1 17 14 1 1 1 1 11-1 1h-33l-1-1v-73z" fill="#B8B01F"/>
<path transform="translate(425,1025)" d="m0 0h21l12 1v7l-1 5h-15v12l1 6 10 1v13h-11v18h15l1 1v11l-1 1h-33v-75z" fill="#B8B01F"/>
<path transform="translate(523,1024)" d="m0 0h7l10 3 4 3-2 6-5 5-7-3-5 1-1 1v6l6 9 9 11 6 11 1 3v7l-4 8-6 5-5 2h-15l-9-4-3-3 1-6 3-5 5 1 7 3 7-1 1-4-5-9-10-12-7-12-1-10 3-7 4-5 6-3z" fill="#B8B01F"/>
<path transform="translate(1605,1025)" d="m0 0 32 1v12h-15v18l12 1v12l-1 1h-12l1 17 15 1 1 12-1 1h-33v-75z" fill="#B8B01F"/>
<path transform="translate(247,1025)" d="m0 0h30l4 1-1 12h-16v19h9l3 1v12l-1 1h-11v29l-1 1h-16l-1-31v-44z" fill="#B8B01F"/>
<path transform="translate(750,1025)" d="m0 0h20l14 1v11l-1 1-15 1v17l12 2-1 13-11 1-1 29h-17z" fill="#B8B01F"/>
<path transform="translate(1363,1025)" d="m0 0 16 1v62h16l1 1v11l-1 1h-33v-75z" fill="#B8B01F"/>
<path transform="translate(1445,1026)" d="m0 0h17v74l-1 1h-16l-1-1v-59z" fill="#B8B122"/>
<path transform="translate(1127,284)" d="m0 0h9l1 4-4 10-9 7-14 5h-5l1-8 4-8 7-6z" fill="#B8B020"/>
<path transform="translate(1079,278)" d="m0 0 5 1 9 7 4 6 1 4v9l-3 1-8-6-7-8-2-6v-7z" fill="#B8B01F"/>
</svg>
